<svg xmlns="http://www.w3.org/2000/svg" width="51.199" height="62.998" viewBox="0 0 51.199 62.998">
    <defs>
        <style>
            .cls-1{fill:url(#linear-gradient)}
        </style>
        <linearGradient id="linear-gradient" x1=".5" x2=".5" y2="1" gradientUnits="objectBoundingBox">
            <stop offset="0" stop-color="#01b1d7"/>
            <stop offset="1" stop-color="#018ce5"/>
        </linearGradient>
    </defs>
    <g id="Group_229" data-name="Group 229" transform="translate(491.742 70.722)">
        <path id="Path_3091" d="M-443-65.031h-3.063l-.851-4.125a1.97 1.97 0 0 0-1.922-1.566h-34.622a1.969 1.969 0 0 0-1.922 1.566l-.851 4.125h-3.063a2.455 2.455 0 0 0-2.453 2.453v4.055a2.456 2.456 0 0 0 2.453 2.453h1.2l.682 4.792a2.172 2.172 0 0 0-.555.456 2.158 2.158 0 0 0-.506 1.718l4.553 31.989a2.168 2.168 0 0 0 1.625 1.789l.648 4.555a3.564 3.564 0 0 0 3.511 3.047h23.971a3.564 3.564 0 0 0 3.511-3.047l.648-4.555a2.168 2.168 0 0 0 1.626-1.789l4.56-31.985a2.158 2.158 0 0 0-.506-1.718 2.166 2.166 0 0 0-.556-.456l.683-4.792h1.2a2.456 2.456 0 0 0 2.453-2.453v-4.055A2.456 2.456 0 0 0-443-65.031zm-2.653 15.666l-4.547 31.99a.311.311 0 0 1-.306.266h-8.84a.923.923 0 0 0-.923.924.923.923 0 0 0 .923.924h7.475l-.6 4.231a1.708 1.708 0 0 1-1.682 1.46h-23.97a1.708 1.708 0 0 1-1.682-1.46l-.6-4.231h16.765a.923.923 0 0 0 .924-.924.923.923 0 0 0-.924-.924h-18.13a.311.311 0 0 1-.306-.266l-4.553-31.989a.306.306 0 0 1 .073-.247.309.309 0 0 1 .218-.1H-445.93a.309.309 0 0 1 .218.1.306.306 0 0 1 .063.246zm-40.571-6.705h40.154l-.641 4.5h-38.872zm43.829-2.453a.606.606 0 0 1-.605.606h-46.294a.606.606 0 0 1-.605-.606v-4.055a.606.606 0 0 1 .605-.606h8.265a.923.923 0 0 0 .923-.924.923.923 0 0 0-.923-.923h-3.316l.774-3.752a.116.116 0 0 1 .113-.092h34.622a.116.116 0 0 1 .113.092l.774 3.752h-28.781a.923.923 0 0 0-.924.923.923.923 0 0 0 .924.924H-443a.606.606 0 0 1 .605.606z" class="cls-1" data-name="Path 3091"/>
        <path id="Path_3092" d="M-340.237 156.867l-.02-.018c-3.07-3.039-8.663-2.408-12.487 1.416a11.182 11.182 0 0 0-3.281 6.43 7.131 7.131 0 0 0 1.887 6.081l.007.007a6.889 6.889 0 0 0 4.968 1.949 9.039 9.039 0 0 0 1.1-.07 11.187 11.187 0 0 0 6.43-3.281c3.833-3.833 4.458-9.446 1.393-12.511zm-13.954 8.055a9.337 9.337 0 0 1 2.754-5.352 9.062 9.062 0 0 1 6.211-2.813 5.471 5.471 0 0 1 2.619.626c-1.551.921-3.96 2.734-4.692 5.42-.637 2.335-4.095 4.923-5.993 6.122a5.537 5.537 0 0 1-.899-4.002zm11.259 3.153a9.334 9.334 0 0 1-5.352 2.754 5.717 5.717 0 0 1-3.584-.626c1.9-1.257 5.553-3.988 6.351-6.913.651-2.389 3.225-4 4.4-4.623 1.829 2.433 1.093 6.5-1.816 9.409z" class="cls-1" data-name="Path 3092" transform="translate(-118.957 -197.884)"/>
    </g>
</svg>
