<?xml version="1.0" encoding="UTF-8"?> <svg xmlns="http://www.w3.org/2000/svg" width="71.796" height="56.594" viewBox="0 0 71.796 56.594"><defs><style> .cls-1{fill:url(#linear-gradient)} </style><linearGradient id="linear-gradient" x1=".5" x2=".5" y2="1" gradientUnits="objectBoundingBox"><stop offset="0" stop-color="#01b1d7"></stop><stop offset="1" stop-color="#018ce5"></stop></linearGradient></defs><g id="Group_230" data-name="Group 230" transform="translate(255.356 -358.991)"><path id="Path_3094" d="M-254.076 364.221c6.259 6.629 12.535 13.241 18.762 19.9a3.267 3.267 0 0 0 2.631 1.2c7.735-.048 15.47-.026 23.2-.026 7.948 0 15.9.017 23.845-.035.589 0 1.5-.367 1.671-.816a2.345 2.345 0 0 0-.668-1.813c-6.345-6.777-12.752-13.489-19.087-20.277a3.823 3.823 0 0 0-3.074-1.362q-23.044.055-46.089.024a6.638 6.638 0 0 0-1.436.05 1.245 1.245 0 0 0-.747 2.05 9.038 9.038 0 0 0 .992 1.105zm4.941-.611q20.8 0 41.6-.026a3.288 3.288 0 0 1 2.651 1.159c5.135 5.5 10.316 10.951 15.48 16.421.366.388.708.8 1.235 1.4-.673.058-1.119.129-1.565.129q-21.038.01-42.076-.022a2.965 2.965 0 0 1-1.989-.68c-5.589-5.817-11.117-11.7-16.658-17.568-.141-.149-.244-.338-.581-.814z" class="cls-1" data-name="Path 3094" transform="translate(0 -2)"></path><path id="Path_3095" d="M-253.792 385.655c6.3 6.673 12.63 13.308 18.869 20.04a2.328 2.328 0 0 0 3.379.5 6.769 6.769 0 0 0 1.5-1.243c1.075-1.223 2.014-1.128 3.122.015 2.362 2.435 4.216 2.419 6.627-.039 1.048-1.068 1.906-1.165 3-.057 2.514 2.544 4.251 2.553 6.752.041 1.07-1.074 1.926-1.1 3.008-.02 2.529 2.528 4.242 2.526 6.746-.009 1.082-1.1 1.941-1.051 3 .029 2.421 2.469 4.242 2.456 6.642.083.842-.833 1.3-1.116 1.882-.9a1.121 1.121 0 0 0 .094.078l1.093.737.16.137a8.247 8.247 0 0 0 1.681 1.1l.906.611a1.146 1.146 0 0 0 .644.2 1.184 1.184 0 0 0 1.014-.588 1.315 1.315 0 0 0-.368-1.754l-2.325-1.566c-.039-.035-.083-.066-.121-.1-2.14-2.008-4.1-2.02-6.219.067-1.591 1.568-1.892 1.572-3.428.044-2.17-2.157-4.177-2.163-6.313-.021-1.541 1.546-1.862 1.546-3.433 0-2.134-2.1-4.111-2.132-6.208-.1-1.76 1.706-1.882 1.7-3.665-.036-1.974-1.927-4.017-1.947-5.971-.058-1.879 1.816-1.879 1.816-3.889-.078a3.81 3.81 0 0 0-5.744-.025c-.473.442-.938.892-1.479 1.405-.5-.507-.932-.918-1.34-1.349q-9-9.52-18-19.043c-.338-.358-.655-.846-1.069-.988a1.562 1.562 0 0 0-1.391.161 1.738 1.738 0 0 0-.194 1.462 4.121 4.121 0 0 0 1.038 1.264z" class="cls-1" data-name="Path 3095" transform="translate(-.298 -14.61)"></path><path id="Path_3096" d="M-253.785 423.646q9.555 10.132 19.1 20.274a1.9 1.9 0 0 0 2.564.532 8.473 8.473 0 0 0 2.076-1.524c1.11-1.192 2.023-1.105 3.128.032 2.365 2.435 4.213 2.417 6.626-.044 1.049-1.07 1.909-1.159 3-.055 2.523 2.545 4.243 2.555 6.748.037 1.073-1.079 1.929-1.089 3.009-.014 2.54 2.528 4.242 2.525 6.746-.009 1.083-1.1 1.942-1.05 3 .028 2.43 2.472 4.271 2.5 6.625.066.752-.776 1.42-1.083 2.14-.851l3.692 2.489a1.149 1.149 0 0 0 .644.2 1.184 1.184 0 0 0 1.014-.588 1.315 1.315 0 0 0-.368-1.754l-3.841-2.588a1.148 1.148 0 0 0-.472-.184c-1.479-.6-2.883-.135-4.466 1.432-1.45 1.435-1.811 1.428-3.315-.068-2.17-2.158-4.173-2.165-6.313-.022-1.543 1.545-1.861 1.545-3.432 0-2.131-2.1-4.112-2.131-6.209-.1-1.76 1.7-1.89 1.7-3.667-.036-1.966-1.925-4.018-1.944-5.971-.055-1.87 1.808-1.938 1.809-3.773.035-1.971-1.906-4.01-1.914-5.979-.026-.428.41-.862.813-1.363 1.286-.5-.5-.931-.916-1.339-1.348q-8.945-9.461-17.886-18.924a4.155 4.155 0 0 0-1.187-1.1 1.5 1.5 0 0 0-1.387.166 1.739 1.739 0 0 0-.186 1.463 4.14 4.14 0 0 0 1.042 1.25z" class="cls-1" data-name="Path 3096" transform="translate(-.301 -36.51)"></path><path id="Path_3097" d="M-184.338 421.174h-1.727a1.226 1.226 0 0 0-.128-.015q-22.477 0-44.953.027a3.46 3.46 0 0 1-2.788-1.225q-9-9.627-18.082-19.17c-.338-.358-.65-.842-1.064-1s-1.185-.169-1.386.1a2.131 2.131 0 0 0-.173 1.605c.118.433.6.762.942 1.12 6.182 6.546 12.388 13.067 18.527 19.657a4.088 4.088 0 0 0 3.313 1.508c7.625-.072 15.251-.034 22.876-.034 7.159 0 14.318.018 21.476-.037h3.167a1.237 1.237 0 0 0 1.2-1.271 1.237 1.237 0 0 0-1.2-1.265z" class="cls-1" data-name="Path 3097" transform="translate(-.423 -23.437)"></path><path id="Path_3098" d="M-184.453 459.163h-1.876l-.063-.027q-22.477 0-44.955.024a3.294 3.294 0 0 1-2.653-1.165q-9.006-9.622-18.085-19.168c-.376-.4-.729-.918-1.191-1.1a1.492 1.492 0 0 0-1.38.208 1.758 1.758 0 0 0-.148 1.468 4.27 4.27 0 0 0 1.044 1.255c6.22 6.586 12.462 13.148 18.644 19.773a3.587 3.587 0 0 0 2.9 1.323c7.732-.056 15.465-.029 23.2-.029h16.316c2.273 0 4.548.057 6.817-.025h1.426a1.237 1.237 0 0 0 1.2-1.271 1.237 1.237 0 0 0-1.196-1.266z" class="cls-1" data-name="Path 3098" transform="translate(-.307 -46.174)"></path></g></svg> 